<svg width="40" height="58" viewBox="0 0 40 58" fill="none" xmlns="http://www.w3.org/2000/svg">
<path d="M10.5913 57.9238C11.2164 58.2249 11.8758 57.5727 11.4931 57.0329C9.41583 54.1027 7.44876 49.1719 10.5828 42.8218C15.8091 32.2323 18.9893 26.7477 18.9893 26.7477C18.9893 26.7477 20.6809 33.1482 25.2662 38.8391C29.6794 44.3162 32.0949 51.2047 28.2007 56.9432C27.8353 57.4817 28.4797 58.1172 29.1007 57.8292C33.9211 55.5943 39.3277 51.1113 39.9378 42.1903C40.1627 39.4643 39.8254 35.6479 38.1386 30.8319C35.9699 24.7281 33.3037 21.8799 31.761 20.6568C31.2996 20.2909 30.582 20.6152 30.6198 21.1698C31.0693 27.7558 28.3356 29.4271 26.7796 25.6606C26.1582 24.1562 25.7957 21.5542 25.7957 18.3854C25.7957 13.11 24.107 7.67937 20.384 3.26645C19.4158 2.11886 18.283 1.04652 16.9833 0.132077C16.5127 -0.199053 15.8306 0.133783 15.8737 0.672273C16.1596 4.24856 15.9006 14.498 5.97942 26.7428C-3.01615 38.1012 0.469608 46.8244 1.7065 49.1871C4.07133 53.7133 7.36992 56.3713 10.5913 57.9238Z" fill="#E40101" fill-opacity="0.75"/>
</svg>
