<svg width="217" height="64" viewBox="0 0 217 64" fill="none" xmlns="http://www.w3.org/2000/svg">
<g clip-path="url(#clip0_1_386)">
<path fill-rule="evenodd" clip-rule="evenodd" d="M208.246 64H8.01251C3.59648 64 0 60.393 0 56V8C0 3.59102 3.59648 0 8.01251 0H208.246C212.658 0 216.258 3.59102 216.258 8V56C216.258 60.393 212.658 64 208.246 64Z" fill="black"/>
<path fill-rule="evenodd" clip-rule="evenodd" d="M208.246 1.2808C211.949 1.2808 214.981 4.30125 214.981 8V56C214.981 59.6988 211.969 62.7192 208.246 62.7192H8.01251C4.30861 62.7192 1.27707 59.6988 1.27707 56V8C1.27707 4.30125 4.28872 1.2808 8.01251 1.2808H208.246ZM208.246 0H8.01251C3.59648 0 0 3.60698 0 8V56C0 60.409 3.59648 64 8.01251 64H208.246C212.658 64 216.258 60.409 216.258 56V8C216.258 3.60698 212.658 0 208.246 0Z" fill="#A6A6A6"/>
<path d="M113.926 21.1711C112.481 21.1711 111.264 20.6644 110.301 19.6668C109.346 18.6973 108.813 17.3606 108.837 15.996C108.837 14.5397 109.33 13.3067 110.301 12.3292C111.26 11.3317 112.477 10.825 113.922 10.825C115.35 10.825 116.567 11.3317 117.546 12.3292C118.517 13.3387 119.01 14.5716 119.01 15.996C118.994 17.4564 118.501 18.6893 117.546 19.6629C116.587 20.6683 115.37 21.1711 113.926 21.1711ZM70.9548 21.1711C69.5425 21.1711 68.3171 20.6723 67.3146 19.6868C66.32 18.7052 65.8147 17.4644 65.8147 16C65.8147 14.5357 66.32 13.2948 67.3146 12.3132C68.2972 11.3277 69.5226 10.8289 70.9548 10.8289C71.655 10.8289 72.3353 10.9686 72.9878 11.2519C73.6283 11.5272 74.1494 11.9023 74.5354 12.3611L74.6308 12.4768L73.5527 13.5382L73.4413 13.4065C72.8326 12.6803 72.017 12.3252 70.9389 12.3252C69.9761 12.3252 69.1367 12.6683 68.4444 13.3466C67.7482 14.0289 67.3941 14.9227 67.3941 16.004C67.3941 17.0853 67.7482 17.9791 68.4444 18.6614C69.1367 19.3397 69.9761 19.6828 70.9389 19.6828C71.9653 19.6828 72.8286 19.3397 73.501 18.6614C73.8988 18.2624 74.1455 17.7038 74.233 16.9975H70.7758V15.5052H75.7169L75.7368 15.6409C75.7726 15.8923 75.8084 16.1516 75.8084 16.391C75.8084 17.7676 75.3947 18.8808 74.5751 19.7028C73.6442 20.6763 72.4268 21.1711 70.9548 21.1711ZM128.089 20.9596H126.565L121.898 13.4703L121.938 14.819V20.9556H120.414V11.0404H122.153L122.201 11.1162L126.589 18.1706L126.549 16.8259V11.0404H128.089V20.9596ZM102.476 20.9596H100.932V12.5327H98.2546V11.0404H105.149V12.5327H102.472V20.9596H102.476ZM96.9974 20.9596H95.4578V11.0404H96.9974V20.9596ZM88.3444 20.9596H86.8047V12.5327H84.1273V11.0404H91.0219V12.5327H88.3444V20.9596ZM83.1526 20.9437H77.2486V11.0404H83.1526V12.5327H78.7922V15.2539H82.7269V16.7302H78.7922V19.4514H83.1526V20.9437ZM111.431 18.6414C112.119 19.3317 112.955 19.6788 113.926 19.6788C114.924 19.6788 115.74 19.3397 116.42 18.6414C117.096 17.9631 117.438 17.0733 117.438 16C117.438 14.9267 117.096 14.0329 116.424 13.3586C115.736 12.6683 114.896 12.3212 113.929 12.3212C112.931 12.3212 112.115 12.6604 111.439 13.3586C110.763 14.0369 110.421 14.9267 110.421 16C110.421 17.0733 110.759 17.9671 111.431 18.6414Z" fill="white"/>
<path fill-rule="evenodd" clip-rule="evenodd" d="M108.694 34.8091C104.934 34.8091 101.887 37.6699 101.887 41.616C101.887 45.5263 104.954 48.423 108.694 48.423C112.454 48.423 115.501 45.5422 115.501 41.616C115.501 37.6699 112.454 34.8091 108.694 34.8091ZM108.694 45.7258C106.637 45.7258 104.867 44.018 104.867 41.6001C104.867 39.1462 106.641 37.4744 108.694 37.4744C110.751 37.4744 112.521 39.1462 112.521 41.6001C112.525 44.034 110.751 45.7258 108.694 45.7258ZM93.8426 34.8091C90.083 34.8091 87.0355 37.6699 87.0355 41.616C87.0355 45.5263 90.1028 48.423 93.8426 48.423C97.6021 48.423 100.65 45.5422 100.65 41.616C100.65 37.6699 97.5982 34.8091 93.8426 34.8091ZM93.8426 45.7258C91.7857 45.7258 90.0153 44.018 90.0153 41.6001C90.0153 39.1462 91.7897 37.4744 93.8426 37.4744C95.8994 37.4744 97.6698 39.1462 97.6698 41.6001C97.6698 44.034 95.8994 45.7258 93.8426 45.7258ZM76.1705 36.8879V39.7687H83.065C82.8542 41.3846 82.3211 42.5776 81.5055 43.3956C80.495 44.4091 78.9355 45.5103 76.1864 45.5103C71.9494 45.5103 68.6354 42.0789 68.6354 37.8295C68.6354 33.5801 71.9494 30.1487 76.1864 30.1487C78.474 30.1487 80.1409 31.0544 81.3782 32.2116L83.4151 30.1687C81.6965 28.5168 79.4089 27.252 76.2023 27.252C70.3899 27.252 65.5123 32.0001 65.5123 37.8136C65.5123 43.643 70.3859 48.3752 76.2023 48.3752C79.3413 48.3752 81.6965 47.3457 83.5584 45.4066C85.4561 43.5033 86.0568 40.818 86.0568 38.6515C86.0568 37.9771 86.0051 37.3707 85.8977 36.8559H76.1665C76.1705 36.852 76.1705 36.8879 76.1705 36.8879ZM148.454 39.1303C147.885 37.6021 146.167 34.7931 142.642 34.7931C139.149 34.7931 136.244 37.5502 136.244 41.6001C136.244 45.4225 139.117 48.4071 142.98 48.4071C146.083 48.4071 147.889 46.5038 148.633 45.3866L146.33 43.8385C145.566 44.9756 144.504 45.7218 142.996 45.7218C141.472 45.7218 140.406 45.0275 139.698 43.6589L148.772 39.8884C148.772 39.8924 148.454 39.1303 148.454 39.1303ZM139.2 41.4046C139.129 38.7751 141.237 37.4385 142.745 37.4385C143.935 37.4385 144.925 38.025 145.263 38.8789L139.2 41.4046ZM131.828 48.0001H134.808V28.0021H131.828V48.0001ZM126.935 36.3213H126.827C126.155 35.5193 124.878 34.7931 123.247 34.7931C119.861 34.7931 116.742 37.7816 116.742 41.62C116.742 45.4425 119.845 48.3951 123.247 48.3951C124.858 48.3951 126.155 47.6649 126.827 46.847H126.935V47.8245C126.935 50.422 125.55 51.8225 123.319 51.8225C121.492 51.8225 120.359 50.5058 119.897 49.4046L117.307 50.4899C118.051 52.2854 120.036 54.5078 123.315 54.5078C126.808 54.5078 129.768 52.445 129.768 47.4136V35.2001H126.951V36.3213C126.955 36.3213 126.935 36.3213 126.935 36.3213ZM123.513 45.7258C121.457 45.7258 119.738 44.0021 119.738 41.62C119.738 39.218 121.457 37.4784 123.513 37.4784C125.55 37.4784 127.13 39.238 127.13 41.62C127.15 44.0021 125.554 45.7258 123.513 45.7258ZM162.406 28.0021H155.281V48.0001H158.261V40.427H162.41C165.708 40.427 168.951 38.029 168.951 34.2225C168.951 30.416 165.72 28.0021 162.406 28.0021ZM162.494 37.634H158.257V30.7712H162.494C164.726 30.7712 165.987 32.6185 165.987 34.2026C165.987 35.7707 164.71 37.634 162.494 37.634ZM180.894 34.7732C178.73 34.7732 176.498 35.7347 175.575 37.8295L178.217 38.9308C178.785 37.8295 179.828 37.4545 180.93 37.4545C182.473 37.4545 184.033 38.3801 184.069 40.032V40.2435C183.536 39.9402 182.366 39.4774 180.966 39.4774C178.113 39.4774 175.221 41.0415 175.221 43.9742C175.221 46.6594 177.56 48.3831 180.166 48.3831C182.167 48.3831 183.269 47.4774 183.957 46.428H184.065V47.9762H186.937V40.3153C186.937 36.7482 184.296 34.7732 180.894 34.7732ZM180.52 45.7258C179.545 45.7258 178.181 45.247 178.181 44.018C178.181 42.4699 179.883 41.8834 181.336 41.8834C182.648 41.8834 183.269 42.1667 184.049 42.5577C183.834 44.3532 182.322 45.7098 180.52 45.7258ZM197.416 35.2001L193.995 43.8744H193.887L190.343 35.2001H187.136L192.455 47.3258L189.424 54.0649H192.527L200.71 35.2001H197.416ZM170.594 48.0001H173.574V28.0021H170.594V48.0001Z" fill="white"/>
<path fill-rule="evenodd" clip-rule="evenodd" d="M16.6456 12.0539C16.1842 12.5527 15.9176 13.3147 15.9176 14.3123V49.6918C15.9176 50.6893 16.1842 51.4514 16.6616 51.9302L16.7849 52.0379L36.5496 32.2155V31.7726L16.769 11.9462L16.6456 12.0539Z" fill="url(#paint0_linear_1_386)"/>
<path fill-rule="evenodd" clip-rule="evenodd" d="M43.1258 38.8429L36.5336 32.2314V31.7686L43.1258 25.1571L43.269 25.2449L51.0667 29.6898C53.2986 30.9506 53.2986 33.0334 51.0667 34.3102L43.269 38.7551L43.1258 38.8429Z" fill="url(#paint1_linear_1_386)"/>
<path fill-rule="evenodd" clip-rule="evenodd" d="M43.2691 38.7551L36.5337 32L16.6456 51.9461C17.3737 52.7282 18.595 52.816 19.9596 52.0539L43.2691 38.7551Z" fill="url(#paint2_linear_1_386)"/>
<path fill-rule="evenodd" clip-rule="evenodd" d="M43.2691 25.2449L19.9596 11.9661C18.595 11.1841 17.3697 11.2918 16.6456 12.0738L36.5337 32L43.2691 25.2449Z" fill="url(#paint3_linear_1_386)"/>
<path opacity="0.2" fill-rule="evenodd" clip-rule="evenodd" d="M43.126 38.6113L19.9756 51.8023C18.6827 52.5485 17.5289 52.4966 16.785 51.8183L16.6616 51.942L16.785 52.0497C17.5289 52.724 18.6827 52.7799 19.9756 52.0338L43.2851 38.755L43.126 38.6113Z" fill="url(#paint4_linear_1_386)"/>
<path opacity="0.12" fill-rule="evenodd" clip-rule="evenodd" d="M51.0667 34.0788L43.106 38.6115L43.2492 38.7551L51.0468 34.3102C52.1648 33.6718 52.7138 32.8339 52.7138 32C52.6462 32.7661 52.0773 33.4923 51.0667 34.0788Z" fill="url(#paint5_linear_1_386)"/>
<path opacity="0.25" fill-rule="evenodd" clip-rule="evenodd" d="M19.9597 12.1975L51.0668 29.9212C52.0773 30.4918 52.6462 31.2379 52.7338 32C52.7338 31.1661 52.1847 30.3282 51.0668 29.6898L19.9597 11.9661C17.7278 10.6853 15.9176 11.7546 15.9176 14.3123V14.5437C15.9176 11.9821 17.7278 10.9327 19.9597 12.1975Z" fill="url(#paint6_linear_1_386)"/>
</g>
<defs>
<linearGradient id="paint0_linear_1_386" x1="33.7114" y1="19.1064" x2="-18.5059" y2="53.9681" gradientUnits="userSpaceOnUse">
<stop stop-color="white"/>
</linearGradient>
<linearGradient id="paint1_linear_1_386" x1="50.5111" y1="27.6013" x2="32.8634" y2="54.7138" gradientUnits="userSpaceOnUse">
<stop stop-color="white"/>
</linearGradient>
<linearGradient id="paint2_linear_1_386" x1="39.6066" y1="35.6757" x2="14.0807" y2="78.5129" gradientUnits="userSpaceOnUse">
<stop stop-color="white"/>
</linearGradient>
<linearGradient id="paint3_linear_1_386" x1="39.6066" y1="15.1043" x2="14.1027" y2="57.9295" gradientUnits="userSpaceOnUse">
<stop stop-color="white"/>
</linearGradient>
<linearGradient id="paint4_linear_1_386" x1="39.6226" y1="41.1051" x2="25.9383" y2="74.9547" gradientUnits="userSpaceOnUse">
<stop stop-color="white"/>
</linearGradient>
<linearGradient id="paint5_linear_1_386" x1="51.3921" y1="33.2064" x2="43.411" y2="47.9332" gradientUnits="userSpaceOnUse">
<stop stop-color="white"/>
</linearGradient>
<linearGradient id="paint6_linear_1_386" x1="47.6691" y1="15.0986" x2="26.5817" y2="64.0474" gradientUnits="userSpaceOnUse">
<stop stop-color="white"/>
</linearGradient>
<clipPath id="clip0_1_386">
<rect width="216.258" height="64" fill="white"/>
</clipPath>
</defs>
</svg>
