<svg width="66" height="63" viewBox="0 0 66 63" fill="none" xmlns="http://www.w3.org/2000/svg">
<path d="M26.5828 24.1646C26.5828 24.1646 17.9855 10.6303 30.1341 2.03728C30.1341 2.03728 32.8956 -0.191032 35.5397 1.52187C38.1391 3.20736 37.5868 6.96982 34.8311 8.84283C32.3457 10.5327 29.1904 14.6044 26.5828 24.1646Z" fill="#88C057"/>
<path d="M26.5828 24.1646C26.5828 24.1646 12.3028 15.9335 3.90176 26.5169C3.90176 26.5169 0.53736 30.0096 1.73482 33.1645C2.84767 36.099 7.23209 36.1758 8.8902 33.476C10.7081 30.5173 15.2487 26.4642 26.5828 24.1646Z" fill="#88C057"/>
<path d="M30.8815 2.3213C30.8815 2.3213 30.9825 2.24783 31.1224 2.15133C30.8521 1.8695 30.5607 1.59644 30.2199 1.34861C27.0823 -0.936723 24.6544 0.894616 24.6544 0.894616C13.7187 7.67824 25.6028 23.4672 25.6028 23.4672C25.6592 22.7073 25.732 21.9966 25.8096 21.3091C24.0445 16.7943 22.3641 8.34607 30.8815 2.3213Z" fill="#88C057"/>
<path d="M3.90174 26.5157C10.3814 18.3514 20.3559 21.3825 24.5794 23.1952C24.6745 23.1919 24.7603 23.1853 24.8555 23.182C24.8555 23.182 8.12633 11.9144 1.5456 21.4768C1.5456 21.4768 -1.24769 24.5243 0.676 28.0553C1.00621 28.6618 1.43396 29.1848 1.91694 29.6213C2.61497 27.8547 3.90174 26.5157 3.90174 26.5157Z" fill="#A4E869"/>
<path d="M6.98524 6.86677C4.2084 10.8661 8.40127 15.9423 8.40127 15.9423C9.48239 16.7845 10.6458 17.5488 11.8409 18.2539C17.3041 18.9536 23.2091 22.2752 25.8649 23.9267C26.2339 24.0243 26.557 24.1065 26.7897 24.1636C25.4125 22.25 21.6861 16.6759 20.7213 11.1973C19.7554 9.83748 18.6942 8.54129 17.5426 7.41288C11.372 1.36508 6.98524 6.86677 6.98524 6.86677Z" fill="#659C35"/>
<path d="M26.5828 24.1646C26.5828 24.1646 17.9855 10.6303 30.1341 2.03728C30.1341 2.03728 32.8956 -0.191032 35.5397 1.52187C38.1391 3.20736 37.5868 6.96982 34.8311 8.84283C32.3457 10.5327 29.1904 14.6044 26.5828 24.1646Z" fill="#A4E869"/>
<path d="M33.0097 16.3525C31.6324 15.8908 30.2669 15.9193 28.9802 16.2077C28.053 18.2683 27.1411 20.7982 26.2891 23.9246C22.5557 24.6823 19.5721 25.6309 17.1677 26.6672C16.6354 28.0961 16.4462 29.6587 17.0549 31.2401C18.9657 36.2022 52.6085 58.0225 64.3387 62.103C65.4421 62.4868 66.307 61.6786 65.8957 60.65C61.5231 49.7036 38.326 18.1356 33.0097 16.3525Z" fill="#FF7800"/>
<path d="M23.222 37.2831C23.3407 36.8565 23.7249 36.5144 24.2255 36.4629C26.1434 36.2666 28.6288 35.3421 29.8568 33.7159C30.2305 33.2213 30.9638 33.1028 31.4949 33.4527C31.8192 33.6654 31.992 34.0054 31.992 34.3497C31.992 34.5679 31.9227 34.7883 31.7769 34.9813C30.1188 37.1756 27.1387 38.2668 24.9059 38.5826" fill="#E85C00"/>
<path d="M45.1146 28.9204C44.755 30.993 43.5846 33.7115 41.2708 35.2347C40.7408 35.5834 40.0075 35.465 39.6326 34.9704C39.259 34.4769 39.3859 33.7916 39.9159 33.4417C41.6562 32.2958 42.6492 29.9765 42.8596 28.1868C42.916 27.7065 43.3002 27.3468 43.7785 27.2481" fill="#E85C00"/>
<path d="M35.5163 46.0187C35.6268 45.5812 36.0146 45.2292 36.5222 45.1765C37.7267 45.0537 39.2826 44.4802 40.0418 43.4779C40.4154 42.9833 41.1487 42.8649 41.6799 43.2147C42.0042 43.4286 42.177 43.7674 42.177 44.1117C42.177 44.33 42.1076 44.5504 41.9619 44.7434C40.8608 46.1997 38.9536 46.9805 37.42 47.2645" fill="#E85C00"/>
<path d="M55.0666 42.4351C54.8586 43.9232 54.0231 45.9925 52.2875 47.1341C51.7563 47.4828 51.0242 47.3655 50.6493 46.8709C50.2733 46.3752 50.4026 45.6909 50.9314 45.3422C52.0066 44.6338 52.62 43.183 52.7516 42.059C52.8221 41.4569 53.4027 41.0227 54.0478 41.0885C54.0842 41.0918 54.1148 41.1104 54.15 41.117" fill="#E85C00"/>
<path d="M54.8436 53.1686C54.4652 53.9078 54.0034 54.626 53.471 55.3037C53.0856 55.7928 53.2007 56.4782 53.7237 56.8357C54.2466 57.1932 54.9822 57.0879 55.3653 56.5999C55.9846 55.8126 56.5228 54.9758 56.9635 54.1139C57.0411 53.9615 57.0787 53.8003 57.0787 53.6413C57.0787 53.2322 56.8319 52.8397 56.41 52.651C55.8248 52.3911 55.1221 52.6225 54.8436 53.1686Z" fill="#E85C00"/>
<path d="M32.4773 19.256C31.5606 21.4997 29.9131 23.5821 27.5805 25.4431C27.0869 25.8368 27.0293 26.5287 27.4512 26.9893C27.8731 27.4499 28.6146 27.5036 29.1081 27.1099C31.7428 25.0077 33.616 22.6281 34.6748 20.0368C34.7265 19.9085 34.7523 19.7769 34.7523 19.6464C34.7523 19.2045 34.4632 18.7889 33.9943 18.6211C33.388 18.4062 32.7088 18.6902 32.4773 19.256Z" fill="#E85C00"/>
<path d="M31.7769 34.9813C31.9227 34.7894 31.992 34.569 31.992 34.3497C31.992 34.0054 31.8192 33.6654 31.4949 33.4527C30.9638 33.1039 30.2316 33.2213 29.8568 33.7159C28.6276 35.341 26.1422 36.2666 24.2255 36.4629C23.7261 36.5144 23.3407 36.8565 23.222 37.2831C23.759 37.7053 24.316 38.1374 24.9047 38.5826C27.1387 38.2668 30.1188 37.1756 31.7769 34.9813Z" fill="#E85C00"/>
<path d="M42.8596 28.1857C42.6493 29.9765 41.6575 32.2958 39.9159 33.4407C39.3859 33.7894 39.2578 34.4758 39.6327 34.9693C40.0064 35.465 40.7397 35.5834 41.2708 35.2336C43.5847 33.7104 44.7551 30.9919 45.1147 28.9193C44.6646 28.3502 44.2204 27.792 43.7797 27.247C43.3003 27.3457 42.916 27.7065 42.8596 28.1857Z" fill="#E85C00"/>
<path d="M41.9619 44.7424C42.1076 44.5505 42.1769 44.33 42.1769 44.1107C42.1769 43.7664 42.0042 43.4275 41.6799 43.2137C41.1499 42.865 40.4166 42.9823 40.0417 43.4769C39.2826 44.4803 37.7279 45.0527 36.5222 45.1755C36.0134 45.2271 35.6256 45.5791 35.5163 46.0177C36.145 46.4333 36.7796 46.8479 37.42 47.2635C38.9536 46.9794 40.8608 46.1987 41.9619 44.7424Z" fill="#E85C00"/>
<path d="M52.7527 42.0589C52.621 43.1829 52.0064 44.6348 50.9324 45.3421C50.4024 45.6908 50.2743 46.374 50.6503 46.8708C51.024 47.3654 51.7573 47.4838 52.2885 47.134C54.0241 45.9913 54.8597 43.9231 55.0677 42.435C54.7657 41.9964 54.4589 41.5566 54.1522 41.1169C54.117 41.1103 54.0864 41.0917 54.05 41.0884C53.4049 41.0215 52.8232 41.4568 52.7527 42.0589Z" fill="#E85C00"/>
</svg>
