<svg width="128" height="128" viewBox="0 0 128 128" fill="none" xmlns="http://www.w3.org/2000/svg">
<circle cx="64" cy="64" r="64" fill="#FF7800"/>
<g clip-path="url(#clip0_1_342)">
<path fill-rule="evenodd" clip-rule="evenodd" d="M49.8107 56.2388C50.7654 54.0638 50.2962 50.8403 48.7522 49.0266L41.838 40.9046C40.2988 39.0964 37.6952 38.9951 36.0305 40.6704L31.2675 45.4641C28.3374 48.413 29.4439 54.0583 30.963 57.9011C30.963 57.9011 32.8882 64.3448 47.9017 79.4549C62.9151 94.565 69.3176 96.5025 69.3176 96.5025C73.1358 98.0314 78.7451 99.1449 81.6751 96.196L86.4381 91.4024C88.1028 89.727 88.0021 87.1067 86.2055 85.5575L78.1354 78.5988C76.3332 77.0449 73.1304 76.5727 70.9693 77.5335C70.9693 77.5335 65.0999 80.4197 63.4282 78.7373L56.0214 71.2828L48.3687 63.5809C46.6971 61.8985 49.8107 56.2388 49.8107 56.2388Z" stroke="white" stroke-width="3" stroke-linecap="round" stroke-linejoin="round"/>
<path fill-rule="evenodd" clip-rule="evenodd" d="M80.5535 65.3066C90.4946 65.3066 98.5535 57.2762 98.5535 47.3702C98.5535 37.4641 90.4946 29.4337 80.5535 29.4337C70.6123 29.4337 62.5535 37.4641 62.5535 47.3702C62.5535 57.2762 70.6123 65.3066 80.5535 65.3066Z" stroke="white" stroke-width="3" stroke-linecap="round" stroke-linejoin="round"/>
<path d="M79.1136 53.8272H70.5494L74.7925 49.7431C77.0278 47.6064 78.1643 46.1316 78.1643 44.4677C78.1643 42.5202 76.952 40.913 74.5084 40.913C72.3679 40.913 70.7388 42.4445 70.4926 44.808L70.4736 44.9971" stroke="white" stroke-width="3" stroke-linecap="round" stroke-linejoin="round"/>
<path d="M88.8155 53.8272V49.886V40.913H88.4816L81.2736 49.9816V50.2877H90.6336" stroke="white" stroke-width="3" stroke-linecap="round" stroke-linejoin="round"/>
</g>
<defs>
<clipPath id="clip0_1_342">
<rect width="71.68" height="71.68" fill="white" transform="translate(27.9999 28.0002)"/>
</clipPath>
</defs>
</svg>
