<svg width="128" height="128" viewBox="0 0 128 128" fill="none" xmlns="http://www.w3.org/2000/svg">
<circle cx="64" cy="64" r="64" fill="#FF7800"/>
<mask id="path-2-inside-1_1_524" fill="white">
<path d="M37.8333 98.9958H89.1667V93.2462H102V75.9972C102 67.6114 95.8031 60.5005 87.2978 58.1431C91.3082 55.8418 93.9792 51.8228 93.9792 47.249C93.9792 40.1165 87.5031 34.3122 79.5417 34.3122C78.1701 34.3122 76.8098 34.4962 75.4815 34.8484C72.5411 31.883 68.266 30 63.5 30C58.734 30 54.4589 31.883 51.5185 34.8484C50.1902 34.4962 48.8299 34.3122 47.4583 34.3122C39.4969 34.3122 33.0208 40.1165 33.0208 47.249C33.0208 51.8228 35.6918 55.8418 39.7022 58.1431C31.1969 60.5005 25 67.6114 25 75.9972V93.2462H37.8333V98.9958ZM85.9583 96.121H41.0417V93.2462V74.5598C41.0417 74.0797 41.0754 73.6054 41.1219 73.1353C41.1379 72.9815 41.1588 72.8292 41.178 72.6754C41.2213 72.3505 41.2775 72.03 41.3432 71.7123C41.3769 71.5513 41.4042 71.3889 41.4427 71.2293C41.5422 70.8168 41.6593 70.4114 41.7924 70.0104C41.8598 69.812 41.94 69.6194 42.0154 69.4239C42.102 69.1968 42.1935 68.9726 42.2913 68.7498C42.386 68.5356 42.4854 68.3229 42.5897 68.113C42.6924 67.9075 42.8046 67.7062 42.9169 67.505C43.0806 67.2118 43.2538 66.9243 43.4367 66.6411C43.5971 66.3953 43.7575 66.1495 43.9308 65.9123C44.0655 65.7283 44.2099 65.5501 44.3527 65.3704C44.5035 65.1807 44.6591 64.9938 44.8195 64.8113C44.9671 64.6431 45.1146 64.4764 45.2702 64.3139C45.4724 64.1026 45.6825 63.8985 45.8959 63.6973C46.0932 63.5104 46.2953 63.3264 46.5023 63.1482C46.7573 62.9297 47.0156 62.7155 47.2851 62.51C47.4615 62.3763 47.6444 62.2484 47.8273 62.1204C48.0374 61.9738 48.2492 61.8301 48.4674 61.6921C48.6695 61.5627 48.8716 61.4348 49.0817 61.3126C49.2935 61.189 49.5117 61.0754 49.7282 60.9604C50.1373 60.7434 50.5576 60.5407 50.9891 60.3524C51.2057 60.2576 51.419 60.1584 51.6404 60.0707L51.8987 59.9672C53.9905 59.1838 56.2829 58.7483 58.6875 58.7483H68.3125C70.7171 58.7483 73.0095 59.1838 75.0997 59.9686L75.358 60.0721C75.5794 60.1584 75.7927 60.259 76.0093 60.3539C76.4408 60.5422 76.8611 60.7448 77.2702 60.9619C77.4883 61.0769 77.7065 61.1904 77.9166 61.3141C78.1252 61.4362 78.3289 61.5642 78.531 61.6935C78.7476 61.8315 78.961 61.9753 79.1711 62.1219C79.354 62.2498 79.5369 62.3777 79.7133 62.5114C79.9828 62.7155 80.2411 62.9311 80.4961 63.1496C80.7047 63.3279 80.9052 63.5119 81.1025 63.6987C81.3159 63.9 81.5276 64.1041 81.7281 64.3154C81.8821 64.4778 82.0313 64.6445 82.1789 64.8127C82.3393 64.9953 82.4949 65.1821 82.6457 65.3719C82.7885 65.5515 82.9345 65.7284 83.0676 65.9138C83.2409 66.151 83.4029 66.3967 83.5617 66.6425C83.7446 66.9257 83.9178 67.2146 84.0815 67.5064C84.1938 67.7077 84.306 67.9089 84.4087 68.1145C84.5146 68.3243 84.6124 68.5371 84.7071 68.7512C84.8049 68.9726 84.8948 69.1983 84.983 69.4254C85.0584 69.6209 85.1386 69.8149 85.206 70.0118C85.3407 70.4114 85.4578 70.8182 85.5557 71.2308C85.5942 71.3903 85.6231 71.5527 85.6551 71.7137C85.7193 72.0314 85.7771 72.3534 85.8204 72.6768C85.8412 72.8292 85.8621 72.983 85.8765 73.1368C85.9246 73.6054 85.9583 74.0797 85.9583 74.5598V93.2462V96.121ZM98.7917 75.9972V90.3714H89.1667V74.5598C89.1667 73.877 89.1201 73.2043 89.0399 72.5403C89.0207 72.3836 88.9838 72.2312 88.9613 72.076C88.8843 71.5628 88.7945 71.0525 88.6726 70.5537C88.6325 70.3899 88.5779 70.2318 88.533 70.0693C88.3983 69.5821 88.2491 69.1005 88.0726 68.6291C88.0133 68.4695 87.9443 68.3143 87.8801 68.1576C87.6908 67.6933 87.4839 67.2362 87.2561 66.7906C87.1759 66.6339 87.0909 66.4787 87.0042 66.3249C86.7652 65.8893 86.5086 65.4653 86.2326 65.0499C86.1316 64.8975 86.0305 64.7452 85.923 64.5942C85.6343 64.1874 85.3279 63.7936 85.0071 63.4084C84.89 63.2675 84.7777 63.1252 84.6557 62.9872C84.3044 62.589 83.9307 62.2081 83.5441 61.8373C83.435 61.7323 83.3339 61.6217 83.2216 61.5196C82.7147 61.0539 82.1853 60.6083 81.6271 60.1929C91.135 60.4214 98.7917 67.4231 98.7917 75.9972ZM77.4931 37.361C78.1701 37.246 78.8535 37.1871 79.5417 37.1871C85.7321 37.1871 90.7708 41.7005 90.7708 47.249C90.7708 52.7974 85.7321 57.3109 79.5417 57.3109C77.3391 57.3109 75.22 56.7359 73.4041 55.6665C73.4282 55.6506 73.4474 55.6305 73.4699 55.6133C74.8511 54.6286 76.0414 53.4442 76.9975 52.1089C77.0279 52.0657 77.0552 52.0226 77.0857 51.9795C77.3632 51.5828 77.6183 51.1745 77.8525 50.7534C77.891 50.6844 77.9263 50.6154 77.9632 50.5464C78.1765 50.1482 78.3674 49.74 78.5391 49.3217C78.5744 49.2355 78.6113 49.1492 78.6449 49.063C78.8005 48.6619 78.9337 48.2523 79.0492 47.8354C79.0781 47.7319 79.1118 47.6299 79.1374 47.5264C79.2401 47.1196 79.3171 46.7056 79.3796 46.2859C79.3973 46.1752 79.423 46.066 79.4358 45.9539C79.5032 45.4364 79.5417 44.9089 79.5417 44.3741C79.5417 43.8049 79.4951 43.2472 79.423 42.6952C79.4005 42.5199 79.3636 42.3474 79.3331 42.172C79.2657 41.7868 79.1855 41.4059 79.0861 41.0307C79.038 40.8482 78.9866 40.667 78.9305 40.4874C78.8005 40.072 78.6481 39.6652 78.4781 39.267C78.43 39.1563 78.3915 39.0428 78.3417 38.9335C78.0979 38.4017 77.8204 37.8871 77.5092 37.3883C77.5012 37.3782 77.498 37.3696 77.4931 37.361ZM73.3865 37.0505L73.4843 37.1641C73.5629 37.2518 73.6335 37.3437 73.7089 37.4329C74.527 38.3974 75.1527 39.4481 75.5922 40.5564C75.6211 40.6282 75.6532 40.6987 75.6804 40.772C75.8713 41.288 76.0157 41.8155 76.1232 42.3531C76.1456 42.4652 76.1633 42.5802 76.1809 42.6938C76.2708 43.2472 76.3333 43.8064 76.3333 44.3741C76.3333 44.8456 76.2932 45.3113 76.2291 45.7727C76.2146 45.8805 76.1922 45.9869 76.1745 46.0947C76.1088 46.4756 76.0269 46.8522 75.9195 47.2217C75.897 47.2993 75.8761 47.3783 75.8521 47.4559C75.5617 48.3816 75.1479 49.27 74.6153 50.0979C74.6056 50.1123 74.596 50.1267 74.5864 50.141C74.3281 50.5392 74.0394 50.923 73.7282 51.291C73.6993 51.324 73.672 51.3585 73.6431 51.393C72.9902 52.1505 72.2299 52.8362 71.3749 53.4342C71.3251 53.4686 71.2722 53.5017 71.2225 53.5362C70.8262 53.805 70.4124 54.0551 69.9792 54.2837C69.9022 54.3239 69.83 54.3685 69.7514 54.4073L69.5686 54.5022C67.7591 55.3761 65.6945 55.8734 63.5 55.8734C61.3055 55.8734 59.2409 55.3761 57.433 54.5022L57.2502 54.4073C57.1732 54.3685 57.0994 54.3239 57.0224 54.2837C56.5893 54.0551 56.1754 53.805 55.7791 53.5362C55.7278 53.5017 55.6765 53.4686 55.6267 53.4342C54.7733 52.8362 54.013 52.1505 53.3585 51.393C53.3296 51.36 53.3023 51.3255 53.2734 51.291C52.9622 50.923 52.6751 50.5392 52.4152 50.141C52.4056 50.1267 52.396 50.1123 52.3863 50.0979C51.8521 49.2685 51.4383 48.3802 51.1479 47.4545C51.1239 47.3783 51.103 47.2993 51.0805 47.2231C50.9731 46.8522 50.8913 46.4756 50.8255 46.0947C50.8078 45.9869 50.7854 45.882 50.7709 45.7727C50.7068 45.3113 50.6667 44.8456 50.6667 44.3741C50.6667 43.8064 50.7292 43.2472 50.8191 42.6952C50.8383 42.5817 50.8544 42.4681 50.8768 42.3546C50.9843 41.8184 51.1287 41.2894 51.3196 40.7734C51.3468 40.7001 51.3789 40.6297 51.4078 40.5578C51.8473 39.4496 52.473 38.3974 53.2911 37.4343C53.3665 37.3452 53.4371 37.2518 53.5157 37.1655L53.6135 37.052C55.97 34.502 59.5265 32.8748 63.5 32.8748C67.4735 32.8748 71.03 34.502 73.3865 37.0505ZM36.2292 47.249C36.2292 41.7005 41.2679 37.1871 47.4583 37.1871C48.1465 37.1871 48.8299 37.246 49.5069 37.361C49.502 37.3696 49.4972 37.3797 49.4924 37.3883C49.1828 37.8857 48.9037 38.4002 48.6599 38.9321C48.6085 39.0428 48.57 39.1563 48.5219 39.2684C48.3519 39.6666 48.1995 40.0734 48.0695 40.4874C48.0134 40.667 47.962 40.8482 47.9139 41.0307C47.8145 41.4059 47.7342 41.7868 47.6669 42.172C47.6364 42.3459 47.6011 42.5184 47.577 42.6952C47.5049 43.2472 47.4583 43.8049 47.4583 44.3741C47.4583 44.9089 47.4968 45.4364 47.561 45.9553C47.5754 46.0674 47.6011 46.1752 47.6171 46.2859C47.6797 46.7056 47.7583 47.121 47.8594 47.5278C47.885 47.6313 47.9187 47.7319 47.9476 47.834C48.0631 48.2508 48.1963 48.6619 48.3519 49.0644C48.3855 49.1521 48.4224 49.2369 48.4577 49.3246C48.6294 49.7414 48.8219 50.1497 49.0336 50.5478C49.0705 50.6168 49.1074 50.6873 49.1459 50.7563C49.3801 51.1774 49.6352 51.5856 49.9127 51.9824C49.9432 52.0255 49.9705 52.0686 50.0009 52.1117C50.957 53.4471 52.1489 54.6301 53.5285 55.6161C53.551 55.6334 53.5718 55.6521 53.5943 55.6693C51.78 56.7359 49.6609 57.3109 47.4583 57.3109C41.2679 57.3109 36.2292 52.7974 36.2292 47.249ZM28.2083 90.3714V75.9972C28.2083 67.4231 35.865 60.4214 45.3745 60.1914C44.8163 60.6068 44.2869 61.0539 43.78 61.5182C43.6677 61.6202 43.5666 61.7309 43.4575 61.8358C43.0709 62.2067 42.6972 62.5876 42.3443 62.9872C42.2239 63.1238 42.1116 63.2661 41.9945 63.4069C41.6721 63.7922 41.3657 64.186 41.077 64.5942C40.9711 64.7452 40.87 64.8961 40.7674 65.0499C40.4914 65.4653 40.2348 65.8893 39.9957 66.3249C39.9107 66.4801 39.8257 66.6339 39.7439 66.7906C39.5145 67.2362 39.3092 67.6933 39.1199 68.1576C39.0557 68.3157 38.9867 68.4695 38.9274 68.6291C38.7509 69.102 38.6017 69.5835 38.4654 70.0722C38.4205 70.2332 38.3675 70.3913 38.3274 70.5537C38.2055 71.054 38.1157 71.5642 38.0387 72.0788C38.0146 72.2341 37.9793 72.385 37.9601 72.5417C37.8799 73.2043 37.8333 73.877 37.8333 74.5598V90.3714H28.2083Z"/>
</mask>
<path d="M37.8333 98.9958H89.1667V93.2462H102V75.9972C102 67.6114 95.8031 60.5005 87.2978 58.1431C91.3082 55.8418 93.9792 51.8228 93.9792 47.249C93.9792 40.1165 87.5031 34.3122 79.5417 34.3122C78.1701 34.3122 76.8098 34.4962 75.4815 34.8484C72.5411 31.883 68.266 30 63.5 30C58.734 30 54.4589 31.883 51.5185 34.8484C50.1902 34.4962 48.8299 34.3122 47.4583 34.3122C39.4969 34.3122 33.0208 40.1165 33.0208 47.249C33.0208 51.8228 35.6918 55.8418 39.7022 58.1431C31.1969 60.5005 25 67.6114 25 75.9972V93.2462H37.8333V98.9958ZM85.9583 96.121H41.0417V93.2462V74.5598C41.0417 74.0797 41.0754 73.6054 41.1219 73.1353C41.1379 72.9815 41.1588 72.8292 41.178 72.6754C41.2213 72.3505 41.2775 72.03 41.3432 71.7123C41.3769 71.5513 41.4042 71.3889 41.4427 71.2293C41.5422 70.8168 41.6593 70.4114 41.7924 70.0104C41.8598 69.812 41.94 69.6194 42.0154 69.4239C42.102 69.1968 42.1935 68.9726 42.2913 68.7498C42.386 68.5356 42.4854 68.3229 42.5897 68.113C42.6924 67.9075 42.8046 67.7062 42.9169 67.505C43.0806 67.2118 43.2538 66.9243 43.4367 66.6411C43.5971 66.3953 43.7575 66.1495 43.9308 65.9123C44.0655 65.7283 44.2099 65.5501 44.3527 65.3704C44.5035 65.1807 44.6591 64.9938 44.8195 64.8113C44.9671 64.6431 45.1146 64.4764 45.2702 64.3139C45.4724 64.1026 45.6825 63.8985 45.8959 63.6973C46.0932 63.5104 46.2953 63.3264 46.5023 63.1482C46.7573 62.9297 47.0156 62.7155 47.2851 62.51C47.4615 62.3763 47.6444 62.2484 47.8273 62.1204C48.0374 61.9738 48.2492 61.8301 48.4674 61.6921C48.6695 61.5627 48.8716 61.4348 49.0817 61.3126C49.2935 61.189 49.5117 61.0754 49.7282 60.9604C50.1373 60.7434 50.5576 60.5407 50.9891 60.3524C51.2057 60.2576 51.419 60.1584 51.6404 60.0707L51.8987 59.9672C53.9905 59.1838 56.2829 58.7483 58.6875 58.7483H68.3125C70.7171 58.7483 73.0095 59.1838 75.0997 59.9686L75.358 60.0721C75.5794 60.1584 75.7927 60.259 76.0093 60.3539C76.4408 60.5422 76.8611 60.7448 77.2702 60.9619C77.4883 61.0769 77.7065 61.1904 77.9166 61.3141C78.1252 61.4362 78.3289 61.5642 78.531 61.6935C78.7476 61.8315 78.961 61.9753 79.1711 62.1219C79.354 62.2498 79.5369 62.3777 79.7133 62.5114C79.9828 62.7155 80.2411 62.9311 80.4961 63.1496C80.7047 63.3279 80.9052 63.5119 81.1025 63.6987C81.3159 63.9 81.5276 64.1041 81.7281 64.3154C81.8821 64.4778 82.0313 64.6445 82.1789 64.8127C82.3393 64.9953 82.4949 65.1821 82.6457 65.3719C82.7885 65.5515 82.9345 65.7284 83.0676 65.9138C83.2409 66.151 83.4029 66.3967 83.5617 66.6425C83.7446 66.9257 83.9178 67.2146 84.0815 67.5064C84.1938 67.7077 84.306 67.9089 84.4087 68.1145C84.5146 68.3243 84.6124 68.5371 84.7071 68.7512C84.8049 68.9726 84.8948 69.1983 84.983 69.4254C85.0584 69.6209 85.1386 69.8149 85.206 70.0118C85.3407 70.4114 85.4578 70.8182 85.5557 71.2308C85.5942 71.3903 85.6231 71.5527 85.6551 71.7137C85.7193 72.0314 85.7771 72.3534 85.8204 72.6768C85.8412 72.8292 85.8621 72.983 85.8765 73.1368C85.9246 73.6054 85.9583 74.0797 85.9583 74.5598V93.2462V96.121ZM98.7917 75.9972V90.3714H89.1667V74.5598C89.1667 73.877 89.1201 73.2043 89.0399 72.5403C89.0207 72.3836 88.9838 72.2312 88.9613 72.076C88.8843 71.5628 88.7945 71.0525 88.6726 70.5537C88.6325 70.3899 88.5779 70.2318 88.533 70.0693C88.3983 69.5821 88.2491 69.1005 88.0726 68.6291C88.0133 68.4695 87.9443 68.3143 87.8801 68.1576C87.6908 67.6933 87.4839 67.2362 87.2561 66.7906C87.1759 66.6339 87.0909 66.4787 87.0042 66.3249C86.7652 65.8893 86.5086 65.4653 86.2326 65.0499C86.1316 64.8975 86.0305 64.7452 85.923 64.5942C85.6343 64.1874 85.3279 63.7936 85.0071 63.4084C84.89 63.2675 84.7777 63.1252 84.6557 62.9872C84.3044 62.589 83.9307 62.2081 83.5441 61.8373C83.435 61.7323 83.3339 61.6217 83.2216 61.5196C82.7147 61.0539 82.1853 60.6083 81.6271 60.1929C91.135 60.4214 98.7917 67.4231 98.7917 75.9972ZM77.4931 37.361C78.1701 37.246 78.8535 37.1871 79.5417 37.1871C85.7321 37.1871 90.7708 41.7005 90.7708 47.249C90.7708 52.7974 85.7321 57.3109 79.5417 57.3109C77.3391 57.3109 75.22 56.7359 73.4041 55.6665C73.4282 55.6506 73.4474 55.6305 73.4699 55.6133C74.8511 54.6286 76.0414 53.4442 76.9975 52.1089C77.0279 52.0657 77.0552 52.0226 77.0857 51.9795C77.3632 51.5828 77.6183 51.1745 77.8525 50.7534C77.891 50.6844 77.9263 50.6154 77.9632 50.5464C78.1765 50.1482 78.3674 49.74 78.5391 49.3217C78.5744 49.2355 78.6113 49.1492 78.6449 49.063C78.8005 48.6619 78.9337 48.2523 79.0492 47.8354C79.0781 47.7319 79.1118 47.6299 79.1374 47.5264C79.2401 47.1196 79.3171 46.7056 79.3796 46.2859C79.3973 46.1752 79.423 46.066 79.4358 45.9539C79.5032 45.4364 79.5417 44.9089 79.5417 44.3741C79.5417 43.8049 79.4951 43.2472 79.423 42.6952C79.4005 42.5199 79.3636 42.3474 79.3331 42.172C79.2657 41.7868 79.1855 41.4059 79.0861 41.0307C79.038 40.8482 78.9866 40.667 78.9305 40.4874C78.8005 40.072 78.6481 39.6652 78.4781 39.267C78.43 39.1563 78.3915 39.0428 78.3417 38.9335C78.0979 38.4017 77.8204 37.8871 77.5092 37.3883C77.5012 37.3782 77.498 37.3696 77.4931 37.361ZM73.3865 37.0505L73.4843 37.1641C73.5629 37.2518 73.6335 37.3437 73.7089 37.4329C74.527 38.3974 75.1527 39.4481 75.5922 40.5564C75.6211 40.6282 75.6532 40.6987 75.6804 40.772C75.8713 41.288 76.0157 41.8155 76.1232 42.3531C76.1456 42.4652 76.1633 42.5802 76.1809 42.6938C76.2708 43.2472 76.3333 43.8064 76.3333 44.3741C76.3333 44.8456 76.2932 45.3113 76.2291 45.7727C76.2146 45.8805 76.1922 45.9869 76.1745 46.0947C76.1088 46.4756 76.0269 46.8522 75.9195 47.2217C75.897 47.2993 75.8761 47.3783 75.8521 47.4559C75.5617 48.3816 75.1479 49.27 74.6153 50.0979C74.6056 50.1123 74.596 50.1267 74.5864 50.141C74.3281 50.5392 74.0394 50.923 73.7282 51.291C73.6993 51.324 73.672 51.3585 73.6431 51.393C72.9902 52.1505 72.2299 52.8362 71.3749 53.4342C71.3251 53.4686 71.2722 53.5017 71.2225 53.5362C70.8262 53.805 70.4124 54.0551 69.9792 54.2837C69.9022 54.3239 69.83 54.3685 69.7514 54.4073L69.5686 54.5022C67.7591 55.3761 65.6945 55.8734 63.5 55.8734C61.3055 55.8734 59.2409 55.3761 57.433 54.5022L57.2502 54.4073C57.1732 54.3685 57.0994 54.3239 57.0224 54.2837C56.5893 54.0551 56.1754 53.805 55.7791 53.5362C55.7278 53.5017 55.6765 53.4686 55.6267 53.4342C54.7733 52.8362 54.013 52.1505 53.3585 51.393C53.3296 51.36 53.3023 51.3255 53.2734 51.291C52.9622 50.923 52.6751 50.5392 52.4152 50.141C52.4056 50.1267 52.396 50.1123 52.3863 50.0979C51.8521 49.2685 51.4383 48.3802 51.1479 47.4545C51.1239 47.3783 51.103 47.2993 51.0805 47.2231C50.9731 46.8522 50.8913 46.4756 50.8255 46.0947C50.8078 45.9869 50.7854 45.882 50.7709 45.7727C50.7068 45.3113 50.6667 44.8456 50.6667 44.3741C50.6667 43.8064 50.7292 43.2472 50.8191 42.6952C50.8383 42.5817 50.8544 42.4681 50.8768 42.3546C50.9843 41.8184 51.1287 41.2894 51.3196 40.7734C51.3468 40.7001 51.3789 40.6297 51.4078 40.5578C51.8473 39.4496 52.473 38.3974 53.2911 37.4343C53.3665 37.3452 53.4371 37.2518 53.5157 37.1655L53.6135 37.052C55.97 34.502 59.5265 32.8748 63.5 32.8748C67.4735 32.8748 71.03 34.502 73.3865 37.0505ZM36.2292 47.249C36.2292 41.7005 41.2679 37.1871 47.4583 37.1871C48.1465 37.1871 48.8299 37.246 49.5069 37.361C49.502 37.3696 49.4972 37.3797 49.4924 37.3883C49.1828 37.8857 48.9037 38.4002 48.6599 38.9321C48.6085 39.0428 48.57 39.1563 48.5219 39.2684C48.3519 39.6666 48.1995 40.0734 48.0695 40.4874C48.0134 40.667 47.962 40.8482 47.9139 41.0307C47.8145 41.4059 47.7342 41.7868 47.6669 42.172C47.6364 42.3459 47.6011 42.5184 47.577 42.6952C47.5049 43.2472 47.4583 43.8049 47.4583 44.3741C47.4583 44.9089 47.4968 45.4364 47.561 45.9553C47.5754 46.0674 47.6011 46.1752 47.6171 46.2859C47.6797 46.7056 47.7583 47.121 47.8594 47.5278C47.885 47.6313 47.9187 47.7319 47.9476 47.834C48.0631 48.2508 48.1963 48.6619 48.3519 49.0644C48.3855 49.1521 48.4224 49.2369 48.4577 49.3246C48.6294 49.7414 48.8219 50.1497 49.0336 50.5478C49.0705 50.6168 49.1074 50.6873 49.1459 50.7563C49.3801 51.1774 49.6352 51.5856 49.9127 51.9824C49.9432 52.0255 49.9705 52.0686 50.0009 52.1117C50.957 53.4471 52.1489 54.6301 53.5285 55.6161C53.551 55.6334 53.5718 55.6521 53.5943 55.6693C51.78 56.7359 49.6609 57.3109 47.4583 57.3109C41.2679 57.3109 36.2292 52.7974 36.2292 47.249ZM28.2083 90.3714V75.9972C28.2083 67.4231 35.865 60.4214 45.3745 60.1914C44.8163 60.6068 44.2869 61.0539 43.78 61.5182C43.6677 61.6202 43.5666 61.7309 43.4575 61.8358C43.0709 62.2067 42.6972 62.5876 42.3443 62.9872C42.2239 63.1238 42.1116 63.2661 41.9945 63.4069C41.6721 63.7922 41.3657 64.186 41.077 64.5942C40.9711 64.7452 40.87 64.8961 40.7674 65.0499C40.4914 65.4653 40.2348 65.8893 39.9957 66.3249C39.9107 66.4801 39.8257 66.6339 39.7439 66.7906C39.5145 67.2362 39.3092 67.6933 39.1199 68.1576C39.0557 68.3157 38.9867 68.4695 38.9274 68.6291C38.7509 69.102 38.6017 69.5835 38.4654 70.0722C38.4205 70.2332 38.3675 70.3913 38.3274 70.5537C38.2055 71.054 38.1157 71.5642 38.0387 72.0788C38.0146 72.2341 37.9793 72.385 37.9601 72.5417C37.8799 73.2043 37.8333 73.877 37.8333 74.5598V90.3714H28.2083Z" stroke="white" stroke-width="8" mask="url(#path-2-inside-1_1_524)"/>
</svg>
